<?xml version="1.0" encoding="UTF-8" standalone="no"?>
<svg width="25px" height="25px" viewBox="0 0 25 25" version="1.1" xmlns="http://www.w3.org/2000/svg" xmlns:xlink="http://www.w3.org/1999/xlink">
    <!-- Generator: Sketch 43.2 (39069) - http://www.bohemiancoding.com/sketch -->
    <title>ic_search_white_24px</title>
    <desc>Created with Sketch.</desc>
    <defs></defs>
    <g id="Page-1" stroke="none" stroke-width="1" fill="none" fill-rule="evenodd">
        <g id="ic_search_white_24px" transform="translate(-4.000000, -4.000000)">
            <path d="M21.9583333,19.8333333 L20.8391667,19.8333333 L20.4425,19.4508333 C21.8308333,17.8358333 22.6666667,15.7391667 22.6666667,13.4583333 C22.6666667,8.3725 18.5441667,4.25 13.4583333,4.25 C8.3725,4.25 4.25,8.3725 4.25,13.4583333 C4.25,18.5441667 8.3725,22.6666667 13.4583333,22.6666667 C15.7391667,22.6666667 17.8358333,21.8308333 19.4508333,20.4425 L19.8333333,20.8391667 L19.8333333,21.9583333 L26.9166667,29.0275 L29.0275,26.9166667 L21.9583333,19.8333333 L21.9583333,19.8333333 Z M13.4583333,19.8333333 C9.93083333,19.8333333 7.08333333,16.9858333 7.08333333,13.4583333 C7.08333333,9.93083333 9.93083333,7.08333333 13.4583333,7.08333333 C16.9858333,7.08333333 19.8333333,9.93083333 19.8333333,13.4583333 C19.8333333,16.9858333 16.9858333,19.8333333 13.4583333,19.8333333 Z" id="Shape" fill="#26E5B5" fill-rule="nonzero"></path>
            <polygon id="Shape" points="0 0 34 0 34 34 0 34"></polygon>
        </g>
    </g>
</svg>